<svg xmlns="http://www.w3.org/2000/svg" viewBox="0 0 512 512">
  <defs>
    <linearGradient id="bg" x1="0" y1="0" x2="1" y2="1">
      <stop offset="0" stop-color="#f8efe2"/>
      <stop offset="1" stop-color="#c8defa"/>
    </linearGradient>
    <linearGradient id="face" x1="0" y1="0" x2="1" y2="1">
      <stop offset="0" stop-color="#f6b6cd"/>
      <stop offset="1" stop-color="#dc779f"/>
    </linearGradient>
    <linearGradient id="helmet" x1="0" y1="0" x2="0" y2="1">
      <stop offset="0" stop-color="#e9f6ff"/>
      <stop offset="1" stop-color="#a8caea"/>
    </linearGradient>
  </defs>

  <rect width="512" height="512" rx="112" fill="url(#bg)"/>

  <ellipse cx="262" cy="300" rx="142" ry="126" fill="url(#face)"/>
  <path d="M177 299c-19 10-31 29-31 51 0 40 39 74 95 74 65 0 117-44 117-98 0-43-33-78-79-86" fill="url(#face)"/>

  <path d="M154 250c6-68 60-122 127-122 75 0 136 67 131 144-3 50-40 86-80 97-20 5-40-11-40-33v-9c0-15 11-28 25-32 22-7 38-28 40-57 3-43-30-79-75-80-38-1-69 29-75 66" fill="url(#helmet)"/>
  <path d="M156 248c7-66 61-118 125-118 73 0 132 63 129 136" fill="none" stroke="#82abd3" stroke-width="14" stroke-linecap="round"/>

  <ellipse cx="313" cy="267" rx="40" ry="34" fill="#d9ecff" opacity="0.85"/>
  <ellipse cx="324" cy="263" rx="9" ry="9" fill="#29313b"/>
  <circle cx="327" cy="260" r="3" fill="#fff"/>

  <path d="M342 286l90 14-66 34z" fill="#f6dfae"/>
  <path d="M378 293l54 8-40 21z" fill="#2b2a2b"/>

  <path d="M207 210c29-26 66-34 105-22" fill="none" stroke="#f0abc5" stroke-width="12" stroke-linecap="round"/>
  <path d="M174 322c8 28 32 52 68 66" fill="none" stroke="#c75d86" stroke-width="10" stroke-linecap="round" opacity="0.7"/>
</svg>
